<svg id="icon" height="512" viewBox="0 0 128 128" width="512" xmlns="http://www.w3.org/2000/svg"><path d="m83.61 67.35h-19.579a7.4 7.4 0 1 1 0-14.8h19.579a9.65 9.65 0 0 0 9.639-9.639v-18.645a7.4 7.4 0 1 1 14.8 0v18.646a24.466 24.466 0 0 1 -24.439 24.438z" fill="#65b54e"/><path d="m108.045 24.268v18.647a24.464 24.464 0 0 1 -24.431 24.431h-19.585a7.371 7.371 0 0 1 -6.635-4.131 6.882 6.882 0 0 0 1.246.111h19.585c13.467 0 24.7-7.083 24.431-24.444v-18.647a7.231 7.231 0 0 0 -.765-3.256 7.386 7.386 0 0 1 6.154 7.289z" fill="#5c9e46"/><path d="m83.61 68.35h-19.579a8.4 8.4 0 0 1 0-16.8h19.579a8.649 8.649 0 0 0 8.639-8.639v-18.645a8.4 8.4 0 0 1 16.8 0v18.646a25.467 25.467 0 0 1 -25.439 25.438zm-19.579-14.8a6.4 6.4 0 0 0 0 12.8h19.579a23.465 23.465 0 0 0 23.438-23.438v-18.646a6.4 6.4 0 0 0 -12.8 0v18.646a10.651 10.651 0 0 1 -10.638 10.639z" fill="#2f3a5a"/><path d="m111.311 31.648h-3.3a1 1 0 0 1 0-2h3.3a1 1 0 0 1 0 2z" fill="#2f3a5a"/><path d="m110.243 40.021h-2.194a1 1 0 0 1 0-2h2.194a1 1 0 0 1 0 2z" fill="#2f3a5a"/><path d="m110.244 48.569a1.007 1.007 0 0 1 -.261-.035l-2.194-.593a1 1 0 0 1 .521-1.931l2.194.593a1 1 0 0 1 -.26 1.966z" fill="#2f3a5a"/><path d="m108.459 55.158a.991.991 0 0 1 -.543-.161l-2.416-1.566a1 1 0 0 1 1.088-1.678l2.412 1.566a1 1 0 0 1 -.545 1.839z" fill="#2f3a5a"/><path d="m105.052 61.5a1 1 0 0 1 -.7-.284l-2.218-2.164a1 1 0 0 1 1.4-1.432l2.218 2.164a1 1 0 0 1 -.7 1.716z" fill="#2f3a5a"/><path d="m99.6 66.024a1 1 0 0 1 -.791-.388l-1.751-2.266a1 1 0 0 1 1.581-1.225l1.754 2.266a1 1 0 0 1 -.79 1.612z" fill="#2f3a5a"/><path d="m92.646 68.843a1 1 0 0 1 -.914-.592l-.851-1.9a1 1 0 1 1 1.826-.816l.851 1.9a1 1 0 0 1 -.913 1.409z" fill="#2f3a5a"/><path d="m85.006 71.261a1 1 0 0 1 -1-1v-3a1 1 0 0 1 2 0v3a1 1 0 0 1 -1 1z" fill="#2f3a5a"/><path d="m110.243 25.266h-2.194a1 1 0 1 1 0-2h2.194a1 1 0 0 1 0 2z" fill="#2f3a5a"/><path d="m106.206 20.424a1 1 0 0 1 -.618-1.786l2.295-1.8a1 1 0 0 1 1.235 1.572l-2.295 1.8a1 1 0 0 1 -.617.214z" fill="#2f3a5a"/><path d="m102.531 17.979a1 1 0 0 1 -.982-1.192l.441-2.253a1 1 0 1 1 1.963.385l-.441 2.253a1 1 0 0 1 -.981.807z" fill="#2f3a5a"/><path d="m98.415 18.21a1 1 0 0 1 -.86-.489l-1.125-1.89a1 1 0 0 1 1.719-1.022l1.124 1.891a1 1 0 0 1 -.858 1.511z" fill="#2f3a5a"/><path d="m94.577 21.038a1 1 0 0 1 -.526-.15l-2.032-1.26a1 1 0 1 1 1.054-1.7l2.032 1.26a1 1 0 0 1 -.528 1.85z" fill="#2f3a5a"/><path d="m93.25 25.266h-1.707a1 1 0 0 1 0-2h1.707a1 1 0 0 1 0 2z" fill="#2f3a5a"/><path d="m93.25 29.48h-2.055a1 1 0 0 1 0-2h2.055a1 1 0 0 1 0 2z" fill="#2f3a5a"/><path d="m93.25 34.87h-2.287a1 1 0 0 1 0-2h2.287a1 1 0 0 1 0 2z" fill="#2f3a5a"/><path d="m93.25 41.3h-2.287a1 1 0 0 1 0-2h2.287a1 1 0 0 1 0 2z" fill="#2f3a5a"/><path d="m92.729 47.03a.991.991 0 0 1 -.272-.038l-2.635-.743a1 1 0 0 1 .543-1.925l2.635.743a1 1 0 0 1 -.271 1.963z" fill="#2f3a5a"/><path d="m88.45 52.245a1 1 0 0 1 -.946-.676l-.79-2.306a1 1 0 1 1 1.892-.648l.79 2.306a1 1 0 0 1 -.946 1.325z" fill="#2f3a5a"/><path d="m82.719 53.551a1 1 0 0 1 -.985-.832l-.38-2.219a1 1 0 0 1 1.972-.337l.379 2.222a1 1 0 0 1 -.987 1.168z" fill="#2f3a5a"/><path d="m44.39 97.642h19.579a7.4 7.4 0 0 0 0-14.8h-19.579a9.65 9.65 0 0 1 -9.639-9.642v-18.642a7.4 7.4 0 1 0 -14.8 0v18.642a24.466 24.466 0 0 0 24.439 24.442z" fill="#65b54e"/><path d="m19.955 54.56v18.647a24.464 24.464 0 0 0 24.431 24.432h19.585a7.371 7.371 0 0 0 6.635-4.131 6.882 6.882 0 0 1 -1.246.111h-19.585c-13.467 0-24.7-7.083-24.431-24.444v-18.647a7.231 7.231 0 0 1 .765-3.256 7.386 7.386 0 0 0 -6.154 7.288z" fill="#5c9e46"/><path d="m63.969 98.643h-19.579a25.467 25.467 0 0 1 -25.439-25.443v-18.642a8.4 8.4 0 0 1 16.8 0v18.642a8.648 8.648 0 0 0 8.639 8.638h19.579a8.4 8.4 0 0 1 0 16.8zm-36.618-50.484a6.407 6.407 0 0 0 -6.4 6.4v18.641a23.465 23.465 0 0 0 23.439 23.443h19.579a6.4 6.4 0 0 0 0-12.8h-19.579a10.651 10.651 0 0 1 -10.64-10.643v-18.642a6.406 6.406 0 0 0 -6.399-6.399z" fill="#2f3a5a"/><path d="m19.984 61.94h-3.3a1 1 0 1 1 0-2h3.3a1 1 0 0 1 0 2z" fill="#2f3a5a"/><path d="m19.951 70.313h-2.194a1 1 0 0 1 0-2h2.194a1 1 0 1 1 0 2z" fill="#2f3a5a"/><path d="m17.756 78.861a1 1 0 0 1 -.256-1.961l2.19-.6a1 1 0 1 1 .521 1.931l-2.194.593a1.007 1.007 0 0 1 -.261.037z" fill="#2f3a5a"/><path d="m19.541 85.45a1 1 0 0 1 -.541-1.839l2.415-1.566a1 1 0 0 1 1.085 1.678l-2.415 1.566a.991.991 0 0 1 -.544.161z" fill="#2f3a5a"/><path d="m22.948 91.794a1 1 0 0 1 -.7-1.716l2.218-2.164a1 1 0 0 1 1.4 1.432l-2.22 2.164a1 1 0 0 1 -.698.284z" fill="#2f3a5a"/><path d="m28.4 96.316a1 1 0 0 1 -.79-1.612l1.754-2.266a1 1 0 0 1 1.581 1.225l-1.754 2.266a1 1 0 0 1 -.791.387z" fill="#2f3a5a"/><path d="m35.354 99.135a1 1 0 0 1 -.913-1.409l.851-1.9a1 1 0 1 1 1.826.816l-.851 1.9a1 1 0 0 1 -.913.593z" fill="#2f3a5a"/><path d="m42.994 101.553a1 1 0 0 1 -1-1v-3a1 1 0 0 1 2 0v3a1 1 0 0 1 -1 1z" fill="#2f3a5a"/><path d="m19.951 55.558h-2.194a1 1 0 0 1 0-2h2.194a1 1 0 1 1 0 2z" fill="#2f3a5a"/><path d="m21.794 50.716a1 1 0 0 1 -.617-.214l-2.295-1.8a1 1 0 0 1 1.235-1.572l2.295 1.8a1 1 0 0 1 -.618 1.786z" fill="#2f3a5a"/><path d="m25.469 48.271a1 1 0 0 1 -.98-.808l-.441-2.253a1 1 0 0 1 1.963-.385l.441 2.253a1 1 0 0 1 -.982 1.192z" fill="#2f3a5a"/><path d="m29.585 48.5a1 1 0 0 1 -.858-1.511l1.124-1.889a1 1 0 1 1 1.719 1.022l-1.125 1.891a1 1 0 0 1 -.86.487z" fill="#2f3a5a"/><path d="m33.423 51.33a1 1 0 0 1 -.528-1.85l2.032-1.26a1 1 0 1 1 1.054 1.7l-2.032 1.26a1 1 0 0 1 -.526.15z" fill="#2f3a5a"/><path d="m36.457 55.558h-1.707a1 1 0 0 1 0-2h1.707a1 1 0 0 1 0 2z" fill="#2f3a5a"/><path d="m36.805 59.773h-2.055a1 1 0 0 1 0-2h2.055a1 1 0 0 1 0 2z" fill="#2f3a5a"/><path d="m37.037 65.163h-2.287a1 1 0 0 1 0-2h2.286a1 1 0 0 1 0 2z" fill="#2f3a5a"/><path d="m37.037 71.6h-2.287a1 1 0 0 1 0-2h2.286a1 1 0 0 1 0 2z" fill="#2f3a5a"/><path d="m35.271 77.323a1 1 0 0 1 -.271-1.963l2.635-.743a1 1 0 0 1 .543 1.925l-2.635.743a.991.991 0 0 1 -.272.038z" fill="#2f3a5a"/><path d="m39.55 82.537a1 1 0 0 1 -.946-1.325l.79-2.306a1 1 0 1 1 1.892.648l-.79 2.306a1 1 0 0 1 -.946.677z" fill="#2f3a5a"/><path d="m45.281 83.843a1 1 0 0 1 -.987-1.168l.379-2.221a1 1 0 0 1 1.972.337l-.379 2.221a1 1 0 0 1 -.985.831z" fill="#2f3a5a"/><path d="m64.031 3.048a12.919 12.919 0 0 0 -12.918 12.918v111.034h25.837v-111.034a12.919 12.919 0 0 0 -12.919-12.918z" fill="#65b54e"/><path d="m76.954 15.968v111.032h-10.816v-111.032a12.939 12.939 0 0 0 -7.51-11.741 12.77 12.77 0 0 1 5.4-1.184 12.922 12.922 0 0 1 12.926 12.925z" fill="#5c9e46"/><g fill="#2f3a5a"><path d="m77.95 128h-27.837v-112.034a13.919 13.919 0 0 1 27.837 0zm-25.837-2h23.837v-110.034a11.919 11.919 0 0 0 -23.837 0z"/><path d="m64.031 4.048a1 1 0 0 1 -1-1v-2.048a1 1 0 0 1 2 0v2.048a1 1 0 0 1 -1 1z"/><path d="m79.407 17.866h-2.453a1 1 0 0 1 0-2h2.453a1 1 0 1 1 0 2z"/><path d="m79.407 23.458h-2.453a1 1 0 0 1 0-2h2.453a1 1 0 0 1 0 2z"/><path d="m79.407 29.05h-2.453a1 1 0 0 1 0-2h2.453a1 1 0 0 1 0 2z"/><path d="m79.407 34.642h-2.453a1 1 0 0 1 0-2h2.453a1 1 0 0 1 0 2z"/><path d="m79.407 40.234h-2.453a1 1 0 0 1 0-2h2.453a1 1 0 0 1 0 2z"/><path d="m79.407 45.826h-2.453a1 1 0 0 1 0-2h2.453a1 1 0 0 1 0 2z"/><path d="m79.407 73.786h-2.453a1 1 0 0 1 0-2h2.453a1 1 0 0 1 0 2z"/><path d="m79.407 80.359h-2.453a1 1 0 0 1 0-2h2.453a1 1 0 1 1 0 2z"/><path d="m79.407 86.933h-2.453a1 1 0 0 1 0-2h2.453a1 1 0 0 1 0 2z"/><path d="m79.407 93.506h-2.453a1 1 0 0 1 0-2h2.453a1 1 0 1 1 0 2z"/><path d="m79.407 100.079h-2.453a1 1 0 0 1 0-2h2.453a1 1 0 0 1 0 2z"/><path d="m79.407 106.653h-2.453a1 1 0 0 1 0-2h2.453a1 1 0 0 1 0 2z"/><path d="m79.407 113.226h-2.453a1 1 0 0 1 0-2h2.453a1 1 0 0 1 0 2z"/><path d="m79.407 119.8h-2.453a1 1 0 0 1 0-2h2.453a1 1 0 0 1 0 2z"/><path d="m68 4.671a.99.99 0 0 1 -.248-.031 1 1 0 0 1 -.721-1.216l.58-2.269a1 1 0 1 1 1.938.5l-.58 2.269a1 1 0 0 1 -.969.747z"/><path d="m71.73 6.6a1 1 0 0 1 -.785-1.62l1.521-1.926a1 1 0 1 1 1.57 1.239l-1.52 1.924a1 1 0 0 1 -.786.383z"/><path d="m74.3 9.138a1 1 0 0 1 -.386-1.923l2.646-1.1a1 1 0 1 1 .771 1.846l-2.646 1.1a.994.994 0 0 1 -.385.077z"/><path d="m76.34 13.038a1 1 0 0 1 -.277-1.961l2.475-.714a1 1 0 1 1 .555 1.922l-2.475.715a1.016 1.016 0 0 1 -.278.038z"/><path d="m51.151 17.866h-2.451a1 1 0 1 1 0-2h2.453a1 1 0 1 1 0 2z"/><path d="m51.151 23.458h-2.451a1 1 0 0 1 0-2h2.453a1 1 0 0 1 0 2z"/><path d="m51.151 29.05h-2.451a1 1 0 0 1 0-2h2.453a1 1 0 0 1 0 2z"/><path d="m51.151 34.642h-2.451a1 1 0 0 1 0-2h2.453a1 1 0 0 1 0 2z"/><path d="m51.151 40.234h-2.451a1 1 0 0 1 0-2h2.453a1 1 0 0 1 0 2z"/><path d="m51.151 45.826h-2.451a1 1 0 0 1 0-2h2.453a1 1 0 0 1 0 2z"/><path d="m51.151 51.895h-2.451a1 1 0 0 1 0-2h2.453a1 1 0 0 1 0 2z"/><path d="m51.151 57.963h-2.451a1 1 0 0 1 0-2h2.453a1 1 0 0 1 0 2z"/><path d="m51.151 63.758h-2.451a1 1 0 0 1 0-2h2.453a1 1 0 0 1 0 2z"/><path d="m51.151 70.33h-2.451a1 1 0 0 1 0-2h2.453a1 1 0 0 1 0 2z"/><path d="m51.151 77.564h-2.451a1 1 0 0 1 0-2h2.453a1 1 0 0 1 0 2z"/><path d="m51.151 106.653h-2.451a1 1 0 0 1 0-2h2.453a1 1 0 1 1 0 2z"/><path d="m51.151 113.226h-2.451a1 1 0 0 1 0-2h2.453a1 1 0 0 1 0 2z"/><path d="m51.151 119.8h-2.451a1 1 0 1 1 0-2h2.453a1 1 0 0 1 0 2z"/><path d="m60.1 4.671a1 1 0 0 1 -.968-.752l-.58-2.269a1 1 0 0 1 1.938-.5l.58 2.269a1 1 0 0 1 -.72 1.221.99.99 0 0 1 -.25.031z"/><path d="m56.375 6.6a1 1 0 0 1 -.786-.38l-1.52-1.929a1 1 0 1 1 1.57-1.239l1.521 1.926a1 1 0 0 1 -.785 1.62z"/><path d="m53.8 9.138a.994.994 0 0 1 -.385-.078l-2.646-1.1a1 1 0 0 1 .771-1.846l2.646 1.1a1 1 0 0 1 -.386 1.924z"/><path d="m51.765 13.038a1.016 1.016 0 0 1 -.278-.04l-2.475-.714a1 1 0 1 1 .555-1.922l2.475.714a1 1 0 0 1 -.277 1.961z"/></g></svg>