<?xml version="1.0"?>
<svg xmlns="http://www.w3.org/2000/svg" viewBox="0 0 64 64" width="512" height="512"><g id="Filled_outline" data-name="Filled outline"><circle cx="32" cy="32" r="29" style="fill:#f3bb59"/><path d="M48,33V29a4,4,0,0,0-4-4L30,23a4,4,0,0,0-4-4H20a4,4,0,0,0-4,4v6a4,4,0,0,0,4,4h1v6a6,6,0,0,0,6,6H43a2,2,0,0,0,2-2V41H31a2,2,0,0,1-2-2V33Z" style="fill:#733"/><rect x="26" y="32" width="3" height="2" style="fill:#c87e7d"/><rect x="46" y="33" width="2" height="3" style="fill:#c87e7d"/><rect x="42" y="33" width="2" height="3" style="fill:#c87e7d"/><rect x="38" y="33" width="2" height="3" style="fill:#c87e7d"/><rect x="34" y="33" width="2" height="3" style="fill:#c87e7d"/><rect x="22" y="23" width="4" height="4" style="fill:#ffd782"/><rect x="40.5" y="25.95" width="2" height="5.099" transform="translate(5.415 63.605) rotate(-78.69)" style="fill:#ffd782"/><rect x="33" y="38" width="2" height="3" style="fill:#c87e7d"/><rect x="37" y="38" width="2" height="3" style="fill:#c87e7d"/><rect x="41" y="38" width="2" height="3" style="fill:#c87e7d"/><circle cx="42" cy="13" r="3" style="fill:#c87e7d"/><circle cx="12" cy="42" r="3" style="fill:#c87e7d"/><path d="M11.881,19.474l-1.762-.948C17.343,5.112,31.928,5.988,32.071,6L31.93,8C31.389,7.962,18.479,7.222,11.881,19.474Z" style="fill:#c87e7d"/><path d="M32,58V56c.134,0,13.423-.144,18.091-10.414l1.82.828C46.7,57.868,32.6,58,32,58Z" style="fill:#c87e7d"/><rect x="28" y="56" width="2" height="2" style="fill:#c87e7d"/><circle cx="53" cy="41" r="2" style="fill:#c87e7d"/><rect x="31" y="12" width="4" height="2" style="fill:#c87e7d"/><rect x="18" y="48" width="4" height="2" style="fill:#c87e7d"/><rect x="7" y="31" width="4" height="2" style="fill:#c87e7d"/><path d="M27,27V23a1,1,0,0,0-1-1H22a1,1,0,0,0-1,1v4a1,1,0,0,0,1,1h4A1,1,0,0,0,27,27Zm-2-1H23V24h2Z"/><path d="M46,43V40H43V38H41v2H39V38H37v2H35V38H33v2H31a1,1,0,0,1-1-1V34h4v2h2V34h2v2h2V34h2v2h2V34h2v2h2V34h1V29a5,5,0,0,0-4.925-5L30.923,22.122A5.009,5.009,0,0,0,26,18H20a5.006,5.006,0,0,0-5,5v6a5.006,5.006,0,0,0,5,5v5a7.009,7.009,0,0,0,7,7H43A3,3,0,0,0,46,43ZM22,39V32H20a3,3,0,0,1-3-3V23a3,3,0,0,1,3-3h6a3,3,0,0,1,3,3v.867L43.858,25.99,44,26a3,3,0,0,1,3,3v3H26v2h2v5a3,3,0,0,0,3,3H44v1a1,1,0,0,1-1,1H27A5.006,5.006,0,0,1,22,39Z"/><rect x="40.5" y="25.95" width="2" height="5.099" transform="translate(5.415 63.605) rotate(-78.69)"/><path d="M32,2A30,30,0,1,0,62,32,30.034,30.034,0,0,0,32,2Zm0,58A28,28,0,1,1,60,32,28.032,28.032,0,0,1,32,60Z"/><path d="M42,17a4,4,0,1,0-4-4A4,4,0,0,0,42,17Zm0-6a2,2,0,1,1-2,2A2,2,0,0,1,42,11Z"/><path d="M12,38a4,4,0,1,0,4,4A4,4,0,0,0,12,38Zm0,6a2,2,0,1,1,2-2A2,2,0,0,1,12,44Z"/><path d="M31.93,8,32.071,6c-.143-.015-14.728-.891-21.952,12.523l1.762.948C18.479,7.222,31.389,7.962,31.93,8Z"/><path d="M32,56v2c.6,0,14.7-.132,19.91-11.586l-1.82-.828C45.422,55.856,32.133,56,32,56Z"/><rect x="28" y="56" width="2" height="2"/><path d="M50,41a3,3,0,1,0,3-3A3,3,0,0,0,50,41Zm3-1a1,1,0,1,1-1,1A1,1,0,0,1,53,40Z"/><rect x="31" y="12" width="4" height="2"/><rect x="18" y="48" width="4" height="2"/><rect x="7" y="31" width="4" height="2"/></g></svg>
