<?xml version="1.0" encoding="iso-8859-1"?>
<!-- Generator: Adobe Illustrator 19.0.0, SVG Export Plug-In . SVG Version: 6.00 Build 0)  -->
<svg version="1.1" id="Capa_1" xmlns="http://www.w3.org/2000/svg" xmlns:xlink="http://www.w3.org/1999/xlink" x="0px" y="0px"
	 viewBox="0 0 512 512" style="enable-background:new 0 0 512 512;" xml:space="preserve">
<path style="fill:#F288E8;" d="M281.803,86.126l-25.771,25.771l-25.771-25.771c-50.901-50.901-133.427-50.901-184.328,0l0,0
	c-50.901,50.901-50.901,133.428,0,184.328l25.771,25.771l156.239,156.239c15.513,15.513,40.666,15.513,56.179,0l156.239-156.239
	l25.771-25.771c50.901-50.901,50.901-133.427,0-184.328l0,0C415.231,35.225,332.704,35.225,281.803,86.126z"/>
<path style="fill:#F27BD2;" d="M466.132,86.126L466.132,86.126C426.1,46.094,366.51,37.554,318.125,60.489
	c3.808,19.394,5.823,39.431,5.823,59.941c0,115.92-63.759,216.932-158.11,269.929l62.104,62.104
	c15.514,15.513,40.666,15.513,56.179,0L440.36,296.224l25.771-25.771C517.033,219.553,517.033,137.027,466.132,86.126z"/>
<path style="fill:#F269A6;" d="M138.097,86.218c-24.593,0-47.715,9.577-65.104,26.967c-17.391,17.391-26.968,40.512-26.968,65.105
	c0,24.594,9.577,47.715,26.968,65.105l182.01,182.01c0.138,0.139,0.426,0.427,1.03,0.427c0.603,0,0.891-0.288,1.029-0.426
	l182.011-182.011c35.898-35.899,35.898-94.31,0-130.21c-35.9-35.9-94.313-35.897-130.21,0.001l-25.771,25.771
	c-14.944,14.944-39.174,14.945-54.118,0.001l-25.772-25.771C185.812,95.795,162.69,86.218,138.097,86.218z"/>
<path style="fill:#F25490;" d="M439.073,113.185c-31.398-31.398-80.015-35.332-115.73-11.81c0.386,6.304,0.605,12.654,0.605,19.056
	c0,101.898-49.272,192.27-125.278,248.642l56.332,56.332c0.138,0.139,0.426,0.427,1.03,0.427c0.603,0,0.891-0.288,1.029-0.426
	l182.011-182.011C474.971,207.496,474.971,149.084,439.073,113.185z"/>
<path d="M471.617,80.641c-53.844-53.845-141.455-53.844-195.298,0l-20.286,20.286l-20.286-20.286
	c-44.399-44.399-113.21-53.286-167.336-21.613c-3.698,2.163-4.941,6.915-2.778,10.613c2.163,3.696,6.914,4.94,10.613,2.777
	c48.041-28.111,109.119-20.218,148.53,19.193l25.771,25.771c1.454,1.455,3.428,2.272,5.485,2.272c2.057,0,4.031-0.817,5.485-2.272
	l25.771-25.771c23.153-23.153,53.936-35.903,86.679-35.903s63.526,12.751,86.679,35.904s35.903,53.936,35.903,86.679
	c0,32.744-12.751,63.527-35.903,86.679l-182.01,182.01c-6.038,6.038-14.066,9.363-22.605,9.363s-16.566-3.325-22.604-9.363
	L51.417,264.97c-23.153-23.153-35.903-53.936-35.903-86.679s12.751-63.526,35.904-86.679c3.03-3.029,3.03-7.941,0-10.97
	c-3.029-3.03-7.94-3.03-10.97,0C14.365,106.724,0,141.403,0,178.29s14.365,71.566,40.448,97.649l182.01,182.01
	c9.256,9.257,21.416,13.885,33.574,13.885c12.159,0,24.318-4.628,33.575-13.885l182.01-182.01
	C525.461,222.095,525.461,134.485,471.617,80.641z"/>
<path d="M299.014,372.484c-3.03,3.029-3.03,7.941,0,10.97c3.029,3.029,7.941,3.029,10.97,0L444.557,248.88
	c38.923-38.923,38.923-102.256,0-141.179c-18.828-18.828-43.898-29.196-70.591-29.196s-51.762,10.369-70.588,29.196l-25.771,25.771
	c-11.896,11.896-31.252,11.897-43.148,0.001l-25.772-25.771c-18.855-18.856-43.925-29.24-70.59-29.24S86.362,88.845,67.508,107.7
	c-18.856,18.856-29.24,43.925-29.24,70.59c0,26.666,10.384,51.735,29.24,70.59l182,182c2.231,2.239,4.779,2.709,6.525,2.709
	c1.741,0,4.284-0.468,6.514-2.698l23.649-23.649c3.03-3.029,3.03-7.941,0-10.97c-3.029-3.03-7.941-3.03-10.97,0l-19.194,19.193
	L78.478,237.91c-15.925-15.925-24.696-37.098-24.696-59.62c0-22.521,8.771-43.694,24.696-59.62
	c15.925-15.925,37.098-24.695,59.619-24.695s43.695,8.771,59.62,24.696l25.772,25.771c17.944,17.945,47.143,17.945,65.088-0.001
	l25.771-25.771c15.896-15.897,37.069-24.652,59.618-24.652c22.55-0.001,43.724,8.754,59.621,24.652
	c32.874,32.875,32.874,86.365,0,119.24L299.014,372.484z"/>
<g>
</g>
<g>
</g>
<g>
</g>
<g>
</g>
<g>
</g>
<g>
</g>
<g>
</g>
<g>
</g>
<g>
</g>
<g>
</g>
<g>
</g>
<g>
</g>
<g>
</g>
<g>
</g>
<g>
</g>
</svg>
